<svg id="svg" version="1.1" xmlns="http://www.w3.org/2000/svg" xmlns:xlink="http://www.w3.org/1999/xlink" width="400" height="199.53596287703016" viewBox="0, 0, 400,199.53596287703016"><g id="svgg"><path id="path0" d="M86.327 29.149 C 85.120 29.230,83.819 29.395,83.437 29.517 C 83.056 29.639,82.023 29.797,81.142 29.868 C 80.261 29.938,79.137 30.152,78.643 30.343 C 78.149 30.534,77.161 30.753,76.447 30.829 C 75.734 30.905,74.701 31.134,74.152 31.339 C 72.754 31.860,71.331 32.311,70.142 32.611 C 69.583 32.752,68.912 33.017,68.650 33.200 C 68.389 33.383,67.992 33.533,67.768 33.533 C 67.545 33.533,66.959 33.746,66.465 34.006 C 65.972 34.266,65.344 34.543,65.070 34.620 C 64.516 34.776,63.940 35.041,60.878 36.543 C 57.301 38.299,53.835 40.468,50.223 43.215 C 49.357 43.873,48.459 44.546,48.227 44.711 C 47.754 45.046,47.458 45.331,43.040 49.701 C 38.754 53.939,38.854 53.818,35.529 58.769 C 35.364 59.015,35.072 59.371,34.880 59.562 C 34.688 59.753,34.531 60.026,34.531 60.169 C 34.531 60.313,34.390 60.547,34.217 60.691 C 34.044 60.834,33.707 61.306,33.468 61.740 C 32.836 62.888,32.647 63.197,32.380 63.519 C 32.248 63.678,31.779 64.510,31.337 65.369 C 30.895 66.228,30.456 67.029,30.361 67.148 C 30.266 67.268,30.129 67.590,30.056 67.864 C 29.983 68.139,29.706 68.812,29.440 69.361 C 28.541 71.218,27.944 72.629,27.944 72.895 C 27.944 73.040,27.778 73.473,27.574 73.855 C 27.371 74.238,27.139 74.910,27.060 75.349 C 26.981 75.788,26.788 76.347,26.631 76.591 C 26.474 76.835,26.247 77.509,26.127 78.088 C 26.007 78.668,25.799 79.321,25.664 79.541 C 25.530 79.760,25.304 80.614,25.161 81.437 C 25.019 82.260,24.812 83.107,24.701 83.319 C 24.589 83.531,24.418 84.424,24.320 85.303 C 24.221 86.183,23.988 87.402,23.802 88.012 C 23.297 89.663,23.283 106.470,23.784 108.283 C 23.966 108.942,24.178 110.198,24.255 111.075 C 24.331 111.952,24.564 113.100,24.772 113.627 C 24.980 114.154,25.154 114.784,25.158 115.027 C 25.163 115.270,25.304 115.828,25.471 116.267 C 25.638 116.707,25.940 117.650,26.142 118.363 C 26.625 120.072,27.992 123.884,28.411 124.691 C 28.593 125.042,28.743 125.429,28.743 125.552 C 28.743 126.733,32.995 134.461,35.758 138.303 C 36.378 139.165,36.999 140.082,37.138 140.342 C 37.277 140.602,37.825 141.355,38.356 142.014 C 38.887 142.674,39.479 143.422,39.671 143.678 C 40.179 144.354,46.886 151.059,47.983 151.988 C 48.497 152.423,49.565 153.250,50.357 153.826 C 51.149 154.402,51.976 155.011,52.196 155.180 C 53.069 155.849,54.022 156.485,54.591 156.778 C 54.920 156.948,55.594 157.355,56.088 157.682 C 56.582 158.009,57.211 158.390,57.485 158.528 C 57.759 158.666,58.256 158.959,58.589 159.180 C 58.921 159.400,59.954 159.957,60.884 160.416 C 62.397 161.164,63.442 161.621,66.467 162.862 C 68.429 163.667,72.282 164.947,73.450 165.182 C 73.833 165.259,74.327 165.436,74.548 165.576 C 74.769 165.716,75.534 165.895,76.248 165.973 C 76.961 166.052,77.949 166.274,78.443 166.467 C 78.937 166.660,80.015 166.880,80.838 166.957 C 81.662 167.033,82.919 167.246,83.633 167.430 C 85.658 167.952,312.287 167.947,313.972 167.424 C 314.576 167.237,315.895 166.995,316.904 166.886 C 317.913 166.778,318.991 166.562,319.299 166.405 C 319.608 166.249,320.434 166.058,321.135 165.982 C 321.835 165.905,322.599 165.722,322.831 165.574 C 323.063 165.427,323.773 165.201,324.409 165.072 C 325.044 164.944,325.807 164.712,326.105 164.556 C 326.403 164.401,326.781 164.273,326.946 164.271 C 327.111 164.269,327.695 164.047,328.244 163.777 C 328.792 163.507,329.368 163.283,329.522 163.280 C 329.676 163.276,330.372 163.004,331.069 162.675 C 331.766 162.345,332.379 162.076,332.431 162.076 C 332.795 162.076,338.110 159.451,339.321 158.673 C 339.815 158.356,340.503 157.936,340.849 157.741 C 341.194 157.545,342.003 157.035,342.645 156.606 C 343.287 156.178,343.962 155.728,344.144 155.608 C 345.326 154.828,347.037 153.588,347.206 153.390 C 347.315 153.260,347.850 152.849,348.393 152.475 C 349.841 151.480,356.986 144.289,358.487 142.315 C 360.350 139.865,362.264 137.116,364.181 134.132 C 365.498 132.083,367.755 127.609,368.337 125.895 C 368.513 125.378,368.747 124.797,368.858 124.603 C 369.064 124.242,369.475 123.140,369.992 121.557 C 370.153 121.063,370.413 120.389,370.569 120.060 C 370.725 119.731,370.953 118.967,371.075 118.363 C 371.197 117.759,371.412 117.084,371.552 116.861 C 371.692 116.639,371.871 115.966,371.951 115.364 C 372.030 114.763,372.256 113.902,372.452 113.450 C 372.648 112.998,372.870 111.965,372.946 111.154 C 373.021 110.344,373.233 109.097,373.417 108.383 C 373.920 106.434,373.916 90.442,373.413 88.224 C 373.226 87.400,373.013 86.098,372.939 85.329 C 372.865 84.561,372.684 83.696,372.538 83.408 C 372.391 83.120,372.174 82.278,372.056 81.537 C 371.937 80.796,371.720 79.954,371.573 79.666 C 371.426 79.377,371.209 78.693,371.091 78.144 C 370.973 77.595,370.692 76.790,370.468 76.355 C 370.243 75.920,370.060 75.399,370.060 75.197 C 370.060 74.996,369.928 74.576,369.768 74.266 C 369.607 73.955,369.347 73.353,369.189 72.928 C 367.770 69.099,366.266 65.955,364.665 63.473 C 364.347 62.979,363.935 62.307,363.750 61.979 C 363.069 60.771,360.099 56.372,359.437 55.589 C 359.251 55.369,358.824 54.830,358.488 54.391 C 358.153 53.952,357.722 53.391,357.532 53.144 C 356.326 51.583,349.853 45.335,348.488 44.415 C 348.002 44.088,347.156 43.455,346.607 43.008 C 346.058 42.561,345.384 42.043,345.110 41.856 C 342.274 39.928,341.169 39.201,340.901 39.091 C 340.727 39.018,340.097 38.647,339.500 38.266 C 338.016 37.316,335.572 36.105,332.735 34.912 C 331.911 34.566,331.138 34.204,331.016 34.107 C 330.895 34.010,330.311 33.759,329.719 33.549 C 329.127 33.340,328.014 32.927,327.246 32.631 C 326.477 32.336,325.175 31.941,324.351 31.754 C 323.528 31.567,322.672 31.314,322.449 31.192 C 322.226 31.071,321.390 30.880,320.591 30.770 C 319.792 30.659,319.029 30.478,318.896 30.367 C 318.763 30.257,317.674 30.061,316.477 29.932 C 315.279 29.803,313.934 29.550,313.487 29.370 C 312.619 29.020,91.510 28.805,86.327 29.149 M295.045 76.098 C 296.454 77.228,296.041 78.950,293.906 80.838 C 293.223 81.442,292.367 82.318,292.004 82.784 C 291.640 83.251,291.239 83.633,291.113 83.633 C 290.986 83.633,290.779 83.860,290.653 84.137 C 290.526 84.415,290.287 84.694,290.121 84.757 C 289.956 84.821,289.820 84.978,289.820 85.106 C 289.820 85.233,289.438 85.755,288.971 86.264 C 287.257 88.130,285.597 87.672,283.333 84.707 C 283.114 84.419,282.768 84.006,282.565 83.789 C 280.914 82.021,283.220 78.502,284.984 80.098 C 285.191 80.286,285.468 80.439,285.599 80.439 C 285.730 80.439,285.939 80.664,286.064 80.938 C 286.516 81.929,287.065 81.618,289.886 78.774 C 291.339 77.309,292.659 76.058,292.821 75.995 C 293.361 75.783,294.731 75.846,295.045 76.098 M200.898 79.861 C 202.771 80.637,202.888 81.181,202.931 89.321 C 202.951 93.164,202.983 98.957,203.001 102.196 C 203.033 107.745,203.011 108.138,202.623 109.030 C 201.661 111.242,198.338 111.686,196.430 109.857 C 195.514 108.981,195.210 108.811,195.210 109.179 C 195.210 109.921,191.316 111.377,189.333 111.377 C 185.872 111.377,182.113 109.192,180.578 106.287 C 179.095 103.484,178.731 101.885,178.940 99.102 C 179.065 97.436,179.648 95.068,180.143 94.212 C 180.302 93.937,180.561 93.441,180.719 93.108 C 180.877 92.776,181.485 92.083,182.070 91.569 C 182.655 91.054,183.323 90.451,183.554 90.227 C 183.785 90.003,184.065 89.820,184.176 89.820 C 184.287 89.820,184.596 89.648,184.864 89.437 C 185.132 89.227,185.795 88.963,186.338 88.852 C 186.881 88.741,187.715 88.551,188.191 88.432 C 188.865 88.262,189.330 88.278,190.287 88.504 C 190.963 88.664,191.845 88.848,192.245 88.913 C 192.646 88.979,193.082 89.163,193.215 89.322 C 194.629 91.027,195.010 90.327,195.010 86.019 C 195.010 81.917,195.118 81.431,196.264 80.385 C 196.845 79.855,197.091 79.752,198.204 79.572 C 198.819 79.473,200.360 79.638,200.898 79.861 M69.752 81.435 C 71.681 81.765,72.062 82.281,74.850 88.323 C 75.053 88.762,75.505 89.885,75.854 90.818 C 76.204 91.751,76.660 92.842,76.868 93.241 C 77.076 93.640,77.246 94.107,77.246 94.278 C 77.246 94.449,77.470 95.012,77.745 95.528 C 78.019 96.044,78.244 96.622,78.244 96.812 C 78.244 97.001,78.374 97.265,78.533 97.397 C 78.692 97.529,78.928 97.966,79.057 98.369 C 79.186 98.772,79.405 99.237,79.543 99.401 C 79.680 99.566,79.858 99.925,79.937 100.200 C 80.016 100.474,80.289 101.148,80.545 101.697 C 80.800 102.246,81.252 103.323,81.549 104.092 C 81.846 104.860,82.212 105.772,82.362 106.118 C 83.044 107.689,82.307 110.061,80.981 110.561 C 77.753 111.781,75.386 110.329,74.062 106.319 C 73.730 105.311,73.585 105.289,67.301 105.290 C 61.076 105.292,61.801 105.058,60.847 107.370 C 59.591 110.410,58.551 111.127,55.813 110.843 C 53.339 110.586,51.974 108.224,53.094 106.135 C 53.313 105.726,53.493 105.269,53.493 105.120 C 53.493 104.972,53.718 104.428,53.992 103.911 C 54.266 103.395,54.491 102.855,54.491 102.711 C 54.491 102.567,54.662 102.232,54.871 101.966 C 55.080 101.700,55.351 101.127,55.473 100.692 C 55.595 100.256,55.828 99.726,55.991 99.513 C 56.154 99.300,56.287 98.992,56.287 98.830 C 56.287 98.566,56.830 97.241,57.892 94.910 C 58.092 94.471,58.316 93.868,58.389 93.571 C 58.462 93.274,58.648 92.926,58.802 92.798 C 58.956 92.670,59.082 92.426,59.082 92.254 C 59.082 91.947,59.209 91.645,60.453 88.985 C 60.797 88.251,61.078 87.543,61.078 87.411 C 61.078 87.280,61.247 86.893,61.454 86.551 C 61.661 86.208,61.898 85.704,61.981 85.429 C 62.063 85.155,62.298 84.716,62.503 84.454 C 62.707 84.192,62.874 83.800,62.874 83.582 C 62.874 83.225,64.257 81.668,64.621 81.615 C 64.703 81.603,65.354 81.482,66.068 81.345 C 67.416 81.087,67.772 81.095,69.752 81.435 M224.251 81.867 C 224.581 82.043,225.165 82.253,225.549 82.334 C 228.173 82.885,232.023 85.655,233.472 88.035 C 235.214 90.898,236.305 96.835,235.460 98.859 C 235.313 99.212,235.128 99.860,235.048 100.299 C 234.881 101.229,234.186 102.873,233.233 104.598 C 231.745 107.291,226.875 110.030,222.570 110.597 C 220.137 110.917,210.536 110.610,209.724 110.186 C 208.828 109.718,208.162 108.363,208.202 107.086 C 208.219 106.537,208.218 101.315,208.200 95.481 C 208.152 80.276,207.364 81.440,217.665 81.507 C 222.728 81.540,223.745 81.596,224.251 81.867 M273.116 83.163 C 274.925 83.737,275.649 84.979,275.649 87.508 C 275.649 89.014,275.833 89.222,277.169 89.222 C 279.088 89.222,280.193 89.905,280.720 91.419 C 281.523 93.724,280.064 95.409,277.266 95.409 C 275.561 95.409,275.576 95.370,275.631 99.748 C 275.693 104.624,275.773 104.781,278.184 104.788 C 280.593 104.794,281.794 106.937,280.586 109.070 C 278.973 111.916,271.747 111.498,269.726 108.443 C 268.550 106.665,268.263 105.043,268.263 100.158 C 268.263 95.523,268.283 95.609,267.212 95.609 C 265.078 95.609,263.544 92.833,264.509 90.716 C 264.772 90.137,266.488 89.222,267.310 89.222 C 268.043 89.222,268.292 88.791,268.255 87.590 C 268.172 84.938,268.767 83.801,270.523 83.255 C 272.080 82.771,271.901 82.777,273.116 83.163 M216.168 88.203 L 215.669 88.341 215.616 95.971 L 215.564 103.601 216.078 103.796 C 217.576 104.366,222.730 103.947,224.077 103.147 C 230.542 99.304,228.793 89.171,221.501 88.224 C 219.851 88.009,216.905 87.998,216.168 88.203 M96.407 88.523 C 96.682 88.680,97.119 88.811,97.379 88.815 C 97.953 88.824,99.472 89.720,100.164 90.458 C 100.757 91.090,101.210 90.960,101.698 90.017 C 102.475 88.514,105.613 88.282,107.036 89.622 L 107.884 90.422 107.884 100.949 L 107.884 111.477 107.435 112.331 C 107.188 112.801,106.986 113.286,106.986 113.409 C 106.986 114.106,104.947 116.484,103.479 117.499 C 100.294 119.702,92.379 120.083,88.717 118.211 C 85.496 116.564,85.063 113.203,87.877 111.688 C 88.635 111.280,90.252 111.671,91.816 112.641 C 92.987 113.367,97.597 113.288,98.681 112.524 C 99.108 112.223,99.525 111.976,99.609 111.976 C 99.768 111.976,100.573 110.756,100.850 110.094 C 100.939 109.882,100.956 109.337,100.888 108.884 L 100.764 108.059 99.833 108.917 C 99.321 109.390,98.767 109.780,98.603 109.785 C 98.438 109.790,97.944 109.968,97.505 110.180 C 95.199 111.294,89.992 110.118,87.854 108.001 C 87.043 107.198,86.028 105.814,86.028 105.512 C 86.028 105.361,85.894 105.127,85.730 104.991 C 85.566 104.855,85.339 104.373,85.225 103.919 C 85.111 103.465,84.866 102.824,84.679 102.495 C 83.991 101.284,84.133 96.208,84.855 96.208 C 84.951 96.208,85.030 95.968,85.030 95.674 C 85.030 93.394,88.958 89.327,91.652 88.816 C 92.196 88.713,92.792 88.540,92.977 88.432 C 93.489 88.133,95.834 88.195,96.407 88.523 M142.615 88.504 C 143.273 88.655,144.238 88.838,144.758 88.912 C 145.278 88.985,145.817 89.153,145.956 89.283 C 146.094 89.414,146.544 89.677,146.956 89.867 C 147.368 90.057,147.705 90.298,147.705 90.402 C 147.705 90.507,147.884 90.649,148.103 90.718 C 148.679 90.901,150.459 92.573,150.618 93.081 C 150.693 93.318,150.911 93.714,151.103 93.960 C 151.295 94.206,151.513 94.745,151.588 95.158 C 151.663 95.571,151.853 96.293,152.010 96.763 C 152.449 98.078,152.369 99.185,151.747 100.413 C 150.732 102.416,150.816 102.395,143.683 102.395 C 137.746 102.395,137.525 102.409,137.525 102.778 C 137.525 103.358,137.738 103.792,138.021 103.792 C 138.160 103.792,138.398 103.972,138.549 104.191 C 139.232 105.186,144.797 105.169,146.173 104.168 C 147.709 103.051,150.347 103.820,150.919 105.551 C 152.235 109.539,145.481 112.367,138.224 110.867 C 137.345 110.685,136.492 110.424,136.327 110.287 C 136.163 110.149,135.735 109.938,135.376 109.818 C 134.578 109.550,132.570 108.010,132.425 107.554 C 132.368 107.372,132.205 107.178,132.064 107.124 C 131.924 107.070,131.510 106.411,131.144 105.659 C 130.779 104.907,130.305 103.951,130.093 103.535 C 129.493 102.361,129.499 97.249,130.102 95.992 C 130.335 95.507,130.665 94.795,130.837 94.411 C 131.008 94.027,131.271 93.502,131.420 93.244 C 131.790 92.609,133.666 90.866,134.144 90.715 C 134.357 90.647,134.531 90.504,134.531 90.396 C 134.531 90.288,134.868 90.060,135.279 89.890 C 135.691 89.720,136.167 89.457,136.338 89.306 C 136.508 89.155,137.280 88.942,138.053 88.832 C 138.826 88.723,139.674 88.547,139.939 88.441 C 140.611 88.172,141.231 88.187,142.615 88.504 M167.864 88.523 C 168.331 88.688,168.949 88.823,169.237 88.823 C 170.863 88.825,174.860 91.835,175.598 93.613 C 175.758 93.997,176.013 94.452,176.165 94.624 C 176.318 94.796,176.528 95.470,176.633 96.121 C 176.738 96.772,176.886 97.560,176.961 97.871 C 177.088 98.392,176.892 99.352,176.406 100.599 C 176.298 100.873,175.889 101.367,175.496 101.697 L 174.782 102.295 168.416 102.356 C 164.914 102.389,162.081 102.479,162.119 102.555 C 162.157 102.632,162.312 102.942,162.464 103.244 C 162.615 103.545,162.811 103.792,162.899 103.792 C 162.986 103.792,163.219 103.964,163.415 104.173 C 164.303 105.119,169.392 105.128,170.606 104.185 C 172.669 102.584,175.778 104.091,175.605 106.608 C 175.246 111.813,162.651 113.044,157.861 108.342 C 156.649 107.152,155.698 105.988,155.692 105.687 C 155.690 105.576,155.471 105.076,155.204 104.576 C 153.984 102.283,154.131 96.975,155.490 94.268 C 156.117 93.017,158.432 90.619,159.011 90.619 C 159.160 90.619,159.281 90.532,159.281 90.427 C 159.281 90.157,162.115 88.823,162.696 88.819 C 162.959 88.818,163.578 88.689,164.072 88.533 C 165.262 88.158,166.818 88.154,167.864 88.523 M126.632 88.783 C 130.790 90.027,129.585 96.043,125.252 95.677 C 120.963 95.314,120.160 96.570,120.160 103.637 C 120.160 109.703,119.963 110.236,117.483 110.882 C 115.172 111.484,113.281 110.508,112.707 108.417 C 112.342 107.084,112.208 92.641,112.554 91.792 C 112.660 91.531,112.798 91.077,112.860 90.784 C 113.161 89.371,114.416 88.741,116.697 88.856 L 118.224 88.933 119.205 90.025 C 120.066 90.986,120.209 91.075,120.383 90.766 C 120.994 89.683,122.749 88.863,125.349 88.445 C 125.404 88.436,125.982 88.588,126.632 88.783 M333.832 88.825 C 334.945 89.002,335.497 89.228,336.542 89.933 C 338.085 90.975,338.315 91.006,338.753 90.235 C 339.296 89.281,340.006 88.945,341.492 88.938 C 343.328 88.930,343.780 89.096,344.544 90.061 L 345.210 90.902 345.210 100.691 L 345.210 110.479 344.727 111.776 C 344.462 112.490,344.139 113.209,344.009 113.373 C 343.879 113.538,343.714 113.839,343.642 114.042 C 342.758 116.523,338.997 118.834,335.322 119.153 C 327.314 119.848,321.665 117.073,323.554 113.372 C 324.369 111.774,326.885 111.419,328.761 112.637 C 330.764 113.938,335.204 113.506,336.807 111.855 C 338.148 110.475,338.284 107.997,336.972 108.849 C 332.402 111.820,326.550 110.519,323.416 105.836 C 320.990 102.212,321.142 96.048,323.744 92.526 C 324.543 91.445,326.451 89.820,326.922 89.820 C 327.054 89.820,327.405 89.642,327.703 89.424 C 328.245 89.026,331.251 88.412,332.036 88.538 C 332.255 88.573,333.064 88.702,333.832 88.825 M250.387 88.833 C 251.287 88.959,252.186 89.222,252.603 89.482 C 252.989 89.723,253.625 90.125,254.016 90.376 L 254.728 90.832 255.508 89.947 C 256.864 88.406,259.438 88.443,260.983 90.025 L 261.776 90.837 261.776 99.896 L 261.776 108.955 261.178 109.592 C 259.658 111.208,257.021 111.200,255.629 109.574 C 254.830 108.640,254.818 108.638,253.974 109.281 C 253.614 109.556,253.266 109.780,253.199 109.780 C 253.132 109.780,252.834 109.958,252.537 110.175 C 250.726 111.498,245.932 111.388,243.413 109.967 C 238.499 107.194,236.753 99.545,239.729 93.828 C 240.375 92.586,242.742 90.140,243.513 89.917 C 243.787 89.838,244.176 89.629,244.377 89.452 C 245.077 88.837,248.144 88.521,250.387 88.833 M311.180 88.834 C 313.852 89.170,315.470 90.335,317.027 93.047 C 318.462 95.546,318.611 108.480,317.221 109.870 C 316.025 111.066,313.269 111.096,312.021 109.927 C 310.954 108.927,310.912 108.682,310.789 102.643 L 310.675 97.003 309.741 96.134 C 308.515 94.992,307.007 94.688,305.563 95.291 C 303.397 96.196,303.001 97.425,302.977 103.315 C 302.953 108.854,302.889 109.283,301.962 110.031 C 300.401 111.292,297.778 110.966,296.619 109.367 L 296.008 108.523 296.009 99.721 L 296.009 90.918 296.768 90.039 C 298.105 88.488,300.725 88.501,302.168 90.066 C 303.091 91.068,303.273 91.077,304.225 90.170 C 304.426 89.978,304.684 89.820,304.799 89.820 C 304.913 89.820,305.250 89.640,305.547 89.420 C 306.030 89.063,307.579 88.715,308.987 88.647 C 309.265 88.634,310.251 88.718,311.180 88.834 M288.806 89.017 C 290.877 89.611,290.870 89.570,291.115 101.754 C 291.275 109.668,290.646 111.040,287.026 110.685 C 285.429 110.529,285.064 110.300,284.431 109.060 L 283.934 108.084 283.864 100.191 C 283.815 94.650,283.863 92.043,284.025 91.442 C 284.567 89.428,286.616 88.389,288.806 89.017 M67.157 91.367 C 67.010 92.067,66.146 94.469,65.669 95.509 C 65.467 95.948,65.198 96.644,65.071 97.056 C 64.944 97.468,64.756 97.804,64.655 97.804 C 64.554 97.804,64.471 98.074,64.471 98.403 L 64.471 99.002 67.764 99.002 L 71.058 99.002 71.058 98.303 C 71.058 97.919,70.971 97.605,70.864 97.605 C 70.757 97.605,70.522 97.088,70.342 96.457 C 70.161 95.826,69.899 95.175,69.759 95.010 C 69.619 94.845,69.442 94.329,69.365 93.862 C 69.289 93.396,69.155 93.014,69.069 93.014 C 68.895 93.014,68.563 92.224,68.376 91.367 C 68.285 90.950,68.138 90.818,67.764 90.818 C 67.390 90.818,67.246 90.948,67.157 91.367 M164.471 94.644 C 163.704 94.909,163.150 95.277,162.631 95.865 C 161.332 97.337,161.428 97.404,164.820 97.395 C 169.113 97.384,169.689 97.291,169.527 96.631 C 169.082 94.816,166.693 93.876,164.471 94.644 M139.653 94.736 C 138.203 95.181,136.844 96.785,137.548 97.220 C 137.857 97.411,144.814 97.369,145.008 97.175 C 145.164 97.018,144.319 95.642,143.788 95.188 C 142.947 94.467,141.162 94.272,139.653 94.736 M332.567 94.952 C 329.228 95.382,327.869 100.503,330.434 102.989 C 332.064 104.569,335.258 104.348,336.762 102.552 L 337.625 101.522 337.625 99.671 C 337.625 96.248,335.791 94.537,332.567 94.952 M94.212 95.547 C 92.725 96.418,92.185 97.207,92.067 98.687 C 91.869 101.150,92.105 101.756,93.857 103.293 C 95.108 104.392,100.000 103.436,100.000 102.093 C 100.000 101.964,100.180 101.696,100.399 101.497 C 101.113 100.851,100.954 98.154,100.136 97.035 C 98.713 95.086,96.114 94.434,94.212 95.547 M188.922 95.530 C 185.892 97.109,185.775 102.354,188.732 104.087 C 189.868 104.752,192.362 104.823,193.031 104.208 C 194.563 102.799,194.578 102.775,194.829 101.368 C 195.644 96.811,192.474 93.678,188.922 95.530 M248.303 95.463 C 247.078 96.126,246.108 97.016,246.108 97.476 C 246.108 97.686,246.003 98.209,245.874 98.639 C 245.324 100.473,246.154 103.102,247.606 104.128 C 248.697 104.898,251.608 104.976,252.281 104.253 C 252.505 104.013,252.810 103.743,252.959 103.654 C 254.663 102.638,254.914 98.149,253.363 96.408 C 252.245 95.154,249.739 94.685,248.303 95.463 " stroke="none" fill="#b39c5d" fill-rule="evenodd"></path><path id="path1" d="M0.000 99.800 L 0.000 199.601 200.000 199.601 L 400.000 199.601 400.000 99.800 L 400.000 0.000 200.000 0.000 L 0.000 0.000 0.000 99.800 M311.577 28.504 C 313.278 28.630,315.030 28.864,315.469 29.024 C 315.908 29.185,317.051 29.408,318.009 29.521 C 318.966 29.633,319.999 29.853,320.304 30.009 C 320.609 30.165,321.410 30.356,322.083 30.433 C 322.757 30.510,323.547 30.697,323.839 30.848 C 324.131 31.000,324.904 31.220,325.557 31.339 C 326.761 31.557,329.028 32.318,329.940 32.810 C 330.215 32.958,330.690 33.139,330.997 33.212 C 331.537 33.341,333.552 34.249,336.427 35.659 C 337.196 36.035,338.588 36.802,339.521 37.361 C 340.454 37.921,341.541 38.568,341.936 38.800 C 342.332 39.032,343.308 39.671,344.105 40.220 C 344.903 40.768,345.765 41.357,346.021 41.528 C 348.186 42.972,354.927 49.105,357.086 51.597 C 359.598 54.495,362.140 57.845,363.373 59.880 C 364.718 62.101,365.154 62.802,365.977 64.072 C 366.439 64.785,366.884 65.594,366.965 65.868 C 367.047 66.143,367.227 66.502,367.365 66.667 C 367.504 66.831,367.684 67.191,367.764 67.465 C 367.845 67.740,368.025 68.099,368.164 68.263 C 368.302 68.428,368.477 68.787,368.552 69.062 C 368.697 69.590,369.451 71.420,370.076 72.759 C 370.282 73.201,370.510 73.875,370.583 74.256 C 370.655 74.638,370.786 75.042,370.873 75.154 C 370.960 75.266,371.224 76.030,371.459 76.851 C 371.694 77.672,372.014 78.790,372.171 79.335 C 372.327 79.880,372.455 80.556,372.455 80.837 C 372.455 81.118,372.587 81.537,372.749 81.768 C 372.911 81.999,373.140 82.849,373.259 83.659 C 373.379 84.468,373.594 85.444,373.739 85.828 C 373.884 86.213,374.065 87.425,374.142 88.523 C 374.219 89.621,374.409 91.507,374.564 92.715 C 374.893 95.266,374.936 100.547,374.647 102.994 C 374.538 103.927,374.357 105.785,374.245 107.123 C 374.134 108.461,373.866 110.112,373.648 110.792 C 373.431 111.472,373.252 112.398,373.249 112.850 C 373.247 113.303,373.082 114.032,372.882 114.471 C 372.683 114.910,372.455 115.758,372.376 116.354 C 372.297 116.951,372.058 117.821,371.845 118.289 C 371.631 118.757,371.457 119.327,371.457 119.556 C 371.457 119.785,371.313 120.307,371.136 120.715 C 370.960 121.123,370.699 121.861,370.556 122.355 C 370.413 122.849,370.095 123.748,369.849 124.351 C 369.603 124.955,369.174 126.033,368.895 126.747 C 368.617 127.460,368.311 128.149,368.216 128.276 C 368.121 128.404,367.729 129.168,367.346 129.973 C 366.962 130.778,366.566 131.572,366.467 131.737 C 366.367 131.901,365.967 132.599,365.579 133.288 C 364.885 134.518,363.706 136.385,362.293 138.493 C 361.899 139.081,361.425 139.799,361.240 140.090 C 361.054 140.381,360.825 140.709,360.730 140.818 C 360.635 140.928,360.031 141.647,359.387 142.415 C 358.743 143.184,358.074 143.966,357.901 144.153 C 357.727 144.340,357.226 144.924,356.788 145.450 C 355.931 146.480,353.142 149.263,351.568 150.661 C 350.661 151.465,349.117 152.846,348.204 153.669 C 347.984 153.866,347.235 154.424,346.539 154.908 C 345.843 155.392,345.021 155.968,344.713 156.188 C 342.949 157.445,342.218 157.924,341.651 158.195 C 340.835 158.587,339.848 159.149,338.723 159.865 C 337.209 160.827,331.412 163.673,330.965 163.673 C 330.819 163.673,330.416 163.804,330.070 163.965 C 329.286 164.329,326.072 165.386,325.198 165.567 C 324.840 165.641,324.301 165.820,324.000 165.966 C 323.699 166.111,322.959 166.290,322.355 166.364 C 321.751 166.438,320.808 166.658,320.259 166.854 C 319.711 167.050,318.725 167.270,318.070 167.344 C 317.415 167.418,316.487 167.612,316.009 167.774 C 313.724 168.550,311.787 168.563,198.603 168.563 C 85.292 168.563,83.184 168.549,81.334 167.776 C 80.972 167.625,80.061 167.438,79.310 167.360 C 78.559 167.283,77.540 167.058,77.046 166.860 C 76.552 166.662,75.744 166.444,75.250 166.376 C 74.344 166.251,72.315 165.689,70.659 165.103 C 70.165 164.928,69.222 164.634,68.563 164.448 C 67.152 164.052,65.284 163.396,64.750 163.111 C 64.541 163.000,63.832 162.669,63.174 162.375 C 61.320 161.549,59.630 160.668,59.105 160.255 C 58.843 160.049,58.506 159.880,58.356 159.880 C 58.206 159.880,57.924 159.723,57.728 159.531 C 57.533 159.339,57.061 159.025,56.680 158.833 C 55.620 158.300,54.774 157.787,52.196 156.113 C 51.427 155.614,50.519 154.977,50.177 154.698 C 48.859 153.624,47.621 152.575,47.106 152.096 C 46.812 151.821,45.650 150.788,44.525 149.800 C 43.400 148.812,42.420 147.903,42.347 147.780 C 42.180 147.496,39.767 144.776,39.172 144.201 C 38.925 143.962,38.723 143.708,38.723 143.637 C 38.723 143.566,38.411 143.172,38.030 142.762 C 37.649 142.352,37.115 141.702,36.843 141.317 C 35.287 139.119,34.132 137.355,34.132 137.178 C 34.132 137.066,33.990 136.858,33.818 136.714 C 33.645 136.571,33.308 136.099,33.069 135.666 C 32.581 134.780,32.363 134.420,31.538 133.134 C 30.900 132.139,29.341 129.089,29.341 128.835 C 29.341 128.747,29.217 128.532,29.065 128.359 C 28.745 127.995,26.866 123.353,26.661 122.422 C 26.586 122.078,26.349 121.453,26.136 121.035 C 25.923 120.617,25.749 120.067,25.749 119.813 C 25.749 119.559,25.573 118.853,25.359 118.244 C 25.145 117.635,24.911 116.717,24.839 116.203 C 24.766 115.690,24.582 115.070,24.428 114.825 C 24.275 114.581,24.052 113.685,23.934 112.835 C 23.816 111.984,23.633 111.129,23.529 110.933 C 23.425 110.738,23.246 109.568,23.133 108.333 C 23.020 107.098,22.798 105.100,22.640 103.892 C 22.272 101.081,22.273 95.348,22.642 92.407 C 22.800 91.149,22.990 89.356,23.063 88.423 C 23.137 87.490,23.318 86.434,23.466 86.075 C 23.613 85.717,23.834 84.684,23.957 83.780 C 24.079 82.876,24.293 81.956,24.434 81.737 C 24.574 81.517,24.747 80.832,24.818 80.214 C 24.889 79.596,25.126 78.698,25.344 78.218 C 25.562 77.738,25.742 77.121,25.745 76.846 C 25.748 76.572,25.919 76.070,26.125 75.732 C 26.332 75.393,26.564 74.720,26.641 74.235 C 26.718 73.750,26.945 72.994,27.145 72.555 C 27.345 72.116,27.774 71.128,28.098 70.359 C 28.422 69.591,28.744 68.827,28.813 68.663 C 28.883 68.498,29.025 68.229,29.128 68.064 C 29.232 67.899,29.641 67.091,30.037 66.267 C 30.433 65.444,30.999 64.393,31.296 63.932 C 31.593 63.470,32.239 62.437,32.731 61.636 C 33.222 60.835,33.739 60.061,33.878 59.916 C 34.018 59.771,34.132 59.572,34.132 59.474 C 34.132 58.988,38.385 53.211,39.122 52.695 C 39.200 52.640,39.839 51.919,40.540 51.093 C 42.029 49.342,47.294 44.318,47.645 44.314 C 47.777 44.313,47.957 44.182,48.046 44.023 C 48.506 43.200,55.707 38.262,57.085 37.825 C 57.305 37.755,57.485 37.621,57.485 37.528 C 57.485 37.435,57.889 37.204,58.383 37.015 C 58.877 36.827,59.281 36.606,59.281 36.524 C 59.281 36.360,63.480 34.261,64.271 34.029 C 64.546 33.949,64.870 33.804,64.992 33.707 C 65.230 33.518,66.952 32.892,68.563 32.409 C 69.112 32.245,69.741 32.029,69.960 31.930 C 70.886 31.512,74.028 30.584,74.950 30.456 C 75.499 30.379,76.442 30.153,77.046 29.952 C 77.650 29.752,78.772 29.527,79.541 29.452 C 80.309 29.378,81.213 29.192,81.549 29.038 C 81.922 28.868,83.559 28.672,85.739 28.537 C 87.707 28.414,89.357 28.275,89.405 28.226 C 89.622 28.009,308.574 28.283,311.577 28.504 M210.245 82.766 C 209.715 83.167,209.215 83.594,209.135 83.714 C 209.054 83.834,208.987 89.382,208.985 96.043 L 208.982 108.153 209.486 108.752 C 210.217 109.621,211.167 109.750,217.002 109.771 C 223.062 109.793,224.841 109.521,227.944 108.101 C 233.299 105.649,236.692 96.669,234.156 91.658 C 233.950 91.251,233.717 90.620,233.638 90.255 C 233.348 88.911,230.058 84.830,229.264 84.830 C 229.104 84.830,228.719 84.618,228.409 84.359 C 228.098 84.099,227.620 83.820,227.345 83.737 C 227.071 83.655,226.577 83.429,226.248 83.236 C 225.918 83.042,225.162 82.823,224.567 82.748 C 223.973 82.673,223.176 82.482,222.796 82.324 C 222.253 82.097,220.955 82.036,216.658 82.036 L 211.208 82.036 210.245 82.766 M270.733 83.759 C 269.714 83.987,269.391 84.691,269.256 86.981 C 269.090 89.793,268.864 90.182,267.465 90.056 C 264.447 89.785,263.904 94.211,266.914 94.542 C 269.232 94.797,269.138 94.544,269.266 100.898 L 269.371 106.088 269.947 107.086 C 271.582 109.923,275.465 111.091,278.593 109.687 C 281.393 108.430,280.707 105.473,277.568 105.263 C 274.846 105.080,274.750 104.887,274.750 99.572 C 274.750 94.539,274.661 94.724,277.192 94.513 C 279.783 94.297,280.552 93.520,280.044 91.633 C 279.737 90.491,279.123 90.146,277.295 90.084 C 274.817 90.000,274.651 89.794,274.651 86.800 C 274.651 84.169,273.365 83.171,270.733 83.759 M222.660 87.488 C 222.877 87.632,223.440 87.862,223.912 87.998 C 229.453 89.596,230.206 100.264,225.008 103.546 C 222.931 104.857,216.421 105.528,215.426 104.534 C 214.947 104.055,214.870 88.127,215.344 87.556 C 215.707 87.118,222.018 87.060,222.660 87.488 M246.008 89.566 C 245.788 89.620,245.519 89.732,245.409 89.816 C 245.299 89.899,244.850 90.084,244.411 90.225 C 243.376 90.558,240.928 93.028,240.544 94.126 C 240.394 94.558,240.148 95.050,239.999 95.222 C 239.631 95.643,238.862 99.552,238.999 100.299 C 239.059 100.629,239.246 101.648,239.413 102.564 C 240.709 109.641,248.226 112.723,253.680 108.412 C 254.870 107.471,255.309 107.507,256.044 108.603 C 257.044 110.094,259.933 110.176,260.704 108.734 C 260.912 108.347,261.241 97.305,261.120 94.810 C 260.896 90.226,260.241 89.167,257.863 89.547 C 256.998 89.686,256.742 89.883,255.471 91.385 C 254.848 92.122,254.352 92.061,253.535 91.144 C 252.246 89.699,248.587 88.932,246.008 89.566 M286.594 89.574 C 285.874 89.891,285.046 90.831,284.926 91.467 C 284.754 92.386,284.928 108.181,285.116 108.719 C 285.615 110.142,289.555 110.082,290.107 108.643 C 290.290 108.168,290.257 91.248,290.074 90.932 C 289.469 89.894,287.560 89.149,286.594 89.574 M298.703 89.591 C 297.896 89.855,297.006 90.437,297.006 90.701 C 297.006 90.850,296.889 91.199,296.745 91.475 C 296.411 92.120,296.494 107.084,296.838 108.184 C 297.302 109.666,298.983 110.325,300.664 109.683 C 302.343 109.042,302.283 109.284,302.395 102.795 L 302.495 97.048 303.516 95.879 C 305.427 93.691,309.030 93.672,310.637 95.842 C 311.104 96.473,311.284 98.057,311.550 103.892 C 311.766 108.621,311.890 109.074,313.116 109.599 C 314.250 110.085,314.681 110.078,315.945 109.553 C 317.302 108.989,317.269 109.185,317.247 101.896 L 317.229 95.709 316.578 94.178 C 315.888 92.557,314.302 90.549,313.517 90.304 C 313.273 90.227,312.860 89.997,312.598 89.793 C 311.891 89.241,307.647 89.260,306.487 89.820 C 306.048 90.032,305.580 90.209,305.447 90.213 C 305.314 90.217,304.703 90.628,304.090 91.128 C 302.785 92.191,302.385 92.172,301.798 91.020 C 301.122 89.696,299.987 89.172,298.703 89.591 M328.443 89.834 C 328.114 90.045,327.684 90.218,327.488 90.219 C 325.624 90.224,322.355 96.205,322.355 99.610 C 322.355 107.334,331.556 112.536,336.779 107.766 C 338.568 106.132,339.556 108.268,338.329 111.119 C 337.862 112.207,336.858 113.106,335.647 113.523 C 335.200 113.678,334.726 113.893,334.595 114.001 C 333.847 114.623,329.903 114.010,327.905 112.962 C 325.318 111.606,322.716 114.148,324.638 116.154 C 325.254 116.797,326.993 117.764,327.532 117.764 C 327.724 117.764,328.404 117.944,329.042 118.164 C 331.627 119.053,336.365 118.648,339.116 117.303 C 340.711 116.522,343.114 114.219,343.114 113.469 C 343.114 113.423,343.359 112.866,343.659 112.231 L 344.204 111.078 344.311 101.697 C 344.432 91.110,344.408 90.820,343.323 90.103 C 341.774 89.077,340.192 89.400,339.418 90.898 C 338.715 92.258,337.306 92.269,336.691 90.920 C 336.565 90.644,336.355 90.419,336.223 90.419 C 336.092 90.419,335.653 90.195,335.249 89.920 C 334.249 89.242,329.462 89.181,328.443 89.834 M336.427 94.997 C 338.537 96.475,339.349 99.544,338.253 101.898 C 337.795 102.882,336.547 104.192,336.068 104.192 C 335.933 104.192,335.470 104.381,335.039 104.612 C 333.133 105.633,329.869 104.280,328.802 102.027 C 326.383 96.920,331.904 91.830,336.427 94.997 M251.796 94.435 C 256.559 95.756,256.460 103.898,251.666 105.200 C 247.730 106.269,244.712 103.734,244.948 99.557 C 245.166 95.700,248.193 93.436,251.796 94.435 " stroke="none" fill="#fbfbfa" fill-rule="evenodd"></path><path id="path2" d="M292.344 77.419 C 291.754 77.954,290.387 79.301,289.307 80.413 C 286.979 82.810,286.750 82.877,285.451 81.537 C 284.405 80.458,283.765 80.370,282.971 81.199 C 282.112 82.096,282.417 82.802,284.621 85.020 C 286.864 87.277,287.570 87.047,290.818 83.005 C 291.203 82.527,292.268 81.382,293.186 80.461 C 295.026 78.614,295.367 77.929,294.898 77.022 C 294.429 76.115,293.651 76.236,292.344 77.419 M197.358 80.651 C 195.957 81.391,195.913 81.568,195.910 86.533 C 195.908 91.474,195.845 91.748,194.795 91.382 C 194.471 91.269,194.081 90.999,193.930 90.783 C 192.896 89.308,187.690 88.665,185.731 89.770 C 185.294 90.017,184.837 90.220,184.715 90.220 C 184.277 90.220,182.361 92.009,181.574 93.154 C 180.314 94.986,179.940 96.575,179.940 100.100 L 179.940 103.293 180.677 104.836 C 181.529 106.621,181.587 106.703,182.996 108.087 C 185.918 110.957,191.763 111.185,194.547 108.537 C 195.343 107.779,196.015 107.891,196.657 108.888 C 197.809 110.676,200.910 110.489,201.902 108.572 C 202.441 107.530,202.181 82.571,201.621 81.623 C 200.841 80.301,198.871 79.852,197.358 80.651 M65.768 81.998 C 64.571 82.415,63.273 83.584,63.273 84.244 C 63.273 84.369,63.055 84.890,62.787 85.400 C 61.943 87.009,61.477 88.028,61.477 88.266 C 61.477 88.393,61.306 88.862,61.096 89.308 C 60.886 89.755,60.379 90.973,59.968 92.016 C 59.557 93.059,59.160 94.002,59.086 94.112 C 59.012 94.222,58.787 94.760,58.587 95.309 C 58.387 95.858,58.102 96.485,57.954 96.701 C 57.806 96.918,57.685 97.202,57.685 97.334 C 57.685 97.465,57.273 98.455,56.770 99.535 C 56.267 100.614,55.629 101.991,55.352 102.595 C 55.076 103.199,54.682 104.052,54.476 104.491 C 52.814 108.045,53.541 110.037,56.509 110.063 C 58.453 110.080,59.827 108.748,60.369 106.320 C 60.438 106.009,60.712 105.537,60.977 105.272 L 61.459 104.790 67.539 104.790 C 74.792 104.790,74.520 104.700,75.353 107.385 C 76.051 109.635,78.403 110.786,80.383 109.846 C 81.762 109.192,82.126 107.926,81.464 106.088 C 80.973 104.725,79.491 101.079,79.024 100.087 C 78.814 99.640,78.643 99.191,78.643 99.089 C 78.644 98.986,78.450 98.498,78.214 98.004 C 77.977 97.510,77.560 96.612,77.287 96.008 C 77.014 95.404,76.662 94.644,76.505 94.320 C 76.347 93.995,75.917 92.958,75.549 92.016 C 75.181 91.074,74.744 90.037,74.579 89.712 C 73.940 88.459,72.341 84.798,72.001 83.809 C 71.506 82.374,67.788 81.293,65.768 81.998 M68.203 89.468 C 68.334 89.569,68.593 90.116,68.778 90.684 C 68.963 91.252,69.181 91.806,69.262 91.916 C 69.343 92.026,69.524 92.475,69.664 92.914 C 69.804 93.353,70.085 94.026,70.289 94.408 C 70.492 94.791,70.659 95.240,70.660 95.406 C 70.661 95.573,70.805 95.978,70.980 96.307 C 72.543 99.241,72.401 99.378,67.783 99.410 C 63.513 99.440,63.141 99.225,64.135 97.305 C 64.368 96.857,64.914 95.381,66.083 92.042 C 67.206 88.836,67.275 88.752,68.203 89.468 M92.914 89.241 C 90.600 89.526,87.168 91.968,86.418 93.863 C 86.277 94.219,86.052 94.646,85.918 94.810 C 84.557 96.483,84.696 101.485,86.190 104.585 C 88.553 109.487,96.040 111.346,99.871 107.983 C 101.215 106.803,101.788 107.463,101.403 109.747 C 100.882 112.838,96.974 114.870,93.637 113.787 C 92.936 113.559,92.218 113.372,92.040 113.371 C 91.862 113.370,91.267 113.149,90.719 112.879 C 90.048 112.549,89.373 112.386,88.662 112.381 L 87.603 112.375 87.090 113.494 L 86.578 114.613 87.036 115.591 C 88.607 118.944,97.744 119.802,102.653 117.058 C 104.164 116.214,106.587 113.488,106.587 112.633 C 106.587 112.520,106.769 111.856,106.993 111.157 C 107.468 109.668,107.766 99.364,107.490 93.916 L 107.339 90.925 106.587 90.173 C 105.156 88.742,102.798 89.176,101.971 91.024 C 101.507 92.060,100.838 92.103,100.002 91.150 C 99.216 90.255,97.535 89.412,96.310 89.298 C 95.760 89.247,95.040 89.180,94.711 89.150 C 94.381 89.119,93.573 89.160,92.914 89.241 M123.852 89.339 C 122.923 89.560,121.398 90.534,120.861 91.247 C 120.036 92.344,119.272 92.332,118.938 91.217 C 118.375 89.338,115.735 88.715,114.219 90.104 L 113.473 90.787 113.414 99.336 C 113.381 104.037,113.404 108.156,113.464 108.489 C 113.716 109.871,116.197 110.635,117.860 109.842 C 119.256 109.176,119.361 108.741,119.362 103.631 C 119.364 96.386,120.394 94.685,124.740 94.751 C 127.517 94.794,128.186 94.326,128.215 92.321 C 128.248 89.985,126.410 88.729,123.852 89.339 M138.623 89.351 C 130.752 90.552,127.443 101.022,133.010 107.111 C 136.387 110.804,145.449 111.624,149.152 108.572 C 151.503 106.634,149.580 103.314,146.872 104.636 C 142.858 106.596,138.626 106.045,136.959 103.346 C 135.927 101.677,136.229 101.597,143.534 101.597 C 151.098 101.597,151.405 101.458,151.357 98.040 C 151.277 92.253,145.488 88.303,138.623 89.351 M162.974 89.412 C 161.827 89.749,159.988 90.510,159.658 90.785 C 156.208 93.650,155.251 95.502,155.135 99.542 C 155.046 102.600,154.994 102.357,156.346 105.162 C 158.205 109.019,164.536 111.446,169.461 110.192 C 171.701 109.621,173.174 109.116,173.620 108.765 C 176.262 106.687,174.787 103.463,171.692 104.552 C 167.635 105.980,166.203 106.126,164.209 105.314 C 162.209 104.499,160.974 102.987,161.568 102.081 L 161.885 101.597 167.581 101.597 C 175.707 101.597,176.248 101.375,176.247 98.047 C 176.246 95.195,172.919 90.225,171.006 90.219 C 170.870 90.218,170.444 90.025,170.060 89.789 C 169.287 89.315,164.222 89.046,162.974 89.412 M167.046 93.627 C 169.556 94.165,171.598 97.284,169.901 97.987 C 168.995 98.363,161.674 98.190,161.420 97.787 C 160.671 96.598,162.672 94.133,164.788 93.636 C 165.860 93.385,165.916 93.385,167.046 93.627 M143.885 94.292 C 144.319 94.593,144.791 95.125,144.933 95.474 C 145.076 95.822,145.309 96.226,145.451 96.372 C 145.762 96.690,145.783 97.292,145.502 97.818 C 145.221 98.342,137.156 98.421,136.726 97.904 C 136.019 97.052,137.154 95.122,138.922 94.169 C 140.409 93.367,142.629 93.422,143.885 94.292 M97.905 94.432 C 99.214 94.762,100.919 96.488,101.222 97.791 C 102.239 102.164,99.128 105.571,95.109 104.483 C 88.287 102.637,91.049 92.706,97.905 94.432 M192.925 94.615 C 196.245 95.877,197.013 101.847,194.169 104.281 C 191.989 106.147,187.764 105.343,186.486 102.818 C 184.017 97.939,188.074 92.770,192.925 94.615 " stroke="none" fill="#0d0b08" fill-rule="evenodd"></path><path id="path3" d="M292.821 75.995 C 292.659 76.058,291.339 77.309,289.886 78.774 C 287.065 81.618,286.516 81.929,286.064 80.938 C 285.939 80.664,285.730 80.439,285.599 80.439 C 285.468 80.439,285.191 80.286,284.984 80.098 C 283.220 78.502,280.914 82.021,282.565 83.789 C 282.768 84.006,283.114 84.419,283.333 84.707 C 285.597 87.672,287.257 88.130,288.971 86.264 C 289.438 85.755,289.820 85.233,289.820 85.106 C 289.820 84.978,289.956 84.821,290.121 84.757 C 290.287 84.694,290.526 84.415,290.653 84.137 C 290.779 83.860,290.986 83.633,291.113 83.633 C 291.239 83.633,291.640 83.251,292.004 82.784 C 292.367 82.318,293.223 81.442,293.906 80.838 C 296.041 78.950,296.454 77.228,295.045 76.098 C 294.731 75.846,293.361 75.783,292.821 75.995 M294.898 77.022 C 295.367 77.929,295.026 78.614,293.186 80.461 C 292.268 81.382,291.203 82.527,290.818 83.005 C 287.570 87.047,286.864 87.277,284.621 85.020 C 282.417 82.802,282.112 82.096,282.971 81.199 C 283.765 80.370,284.405 80.458,285.451 81.537 C 286.750 82.877,286.979 82.810,289.307 80.413 C 293.358 76.242,294.223 75.717,294.898 77.022 M198.204 79.572 C 197.091 79.752,196.845 79.855,196.264 80.385 C 195.118 81.431,195.010 81.917,195.010 86.019 C 195.010 90.327,194.629 91.027,193.215 89.322 C 193.082 89.163,192.646 88.979,192.245 88.913 C 191.845 88.848,190.963 88.664,190.287 88.504 C 189.330 88.278,188.865 88.262,188.191 88.432 C 187.715 88.551,186.881 88.741,186.338 88.852 C 185.795 88.963,185.132 89.227,184.864 89.437 C 184.596 89.648,184.287 89.820,184.176 89.820 C 184.065 89.820,183.785 90.003,183.554 90.227 C 183.323 90.451,182.655 91.054,182.070 91.569 C 181.485 92.083,180.877 92.776,180.719 93.108 C 180.561 93.441,180.302 93.937,180.143 94.212 C 179.648 95.068,179.065 97.436,178.940 99.102 C 178.731 101.885,179.095 103.484,180.578 106.287 C 182.113 109.192,185.872 111.377,189.333 111.377 C 191.316 111.377,195.210 109.921,195.210 109.179 C 195.210 108.811,195.514 108.981,196.430 109.857 C 198.338 111.686,201.661 111.242,202.623 109.030 C 203.011 108.138,203.033 107.745,203.001 102.196 C 202.983 98.957,202.951 93.164,202.931 89.321 C 202.891 81.763,202.837 81.356,201.751 80.418 C 200.973 79.746,199.419 79.376,198.204 79.572 M200.495 80.577 C 202.098 81.342,202.028 80.717,202.119 95.164 C 202.206 109.149,202.242 108.645,201.082 109.558 C 199.834 110.539,197.493 110.185,196.657 108.888 C 196.015 107.891,195.343 107.779,194.547 108.537 C 191.763 111.185,185.918 110.957,182.996 108.087 C 181.587 106.703,181.529 106.621,180.677 104.836 L 179.940 103.293 179.940 100.100 C 179.940 96.575,180.314 94.986,181.574 93.154 C 182.361 92.009,184.277 90.220,184.715 90.220 C 184.837 90.220,185.294 90.017,185.731 89.770 C 187.690 88.665,192.896 89.308,193.930 90.783 C 194.081 90.999,194.471 91.269,194.795 91.382 C 195.845 91.748,195.908 91.474,195.910 86.533 C 195.913 82.661,195.956 82.045,196.262 81.578 C 197.047 80.380,199.076 79.901,200.495 80.577 M66.068 81.345 C 65.354 81.482,64.703 81.603,64.621 81.615 C 64.257 81.668,62.874 83.225,62.874 83.582 C 62.874 83.800,62.707 84.192,62.503 84.454 C 62.298 84.716,62.063 85.155,61.981 85.429 C 61.898 85.704,61.661 86.208,61.454 86.551 C 61.247 86.893,61.078 87.280,61.078 87.411 C 61.078 87.543,60.797 88.251,60.453 88.985 C 59.209 91.645,59.082 91.947,59.082 92.254 C 59.082 92.426,58.956 92.670,58.802 92.798 C 58.648 92.926,58.462 93.274,58.389 93.571 C 58.316 93.868,58.092 94.471,57.892 94.910 C 56.830 97.241,56.287 98.566,56.287 98.830 C 56.287 98.992,56.154 99.300,55.991 99.513 C 55.828 99.726,55.595 100.256,55.473 100.692 C 55.351 101.127,55.080 101.700,54.871 101.966 C 54.662 102.232,54.491 102.567,54.491 102.711 C 54.491 102.855,54.266 103.395,53.992 103.911 C 53.718 104.428,53.493 104.972,53.493 105.120 C 53.493 105.269,53.313 105.726,53.094 106.135 C 51.974 108.224,53.339 110.586,55.813 110.843 C 58.551 111.127,59.591 110.410,60.847 107.370 C 61.801 105.058,61.076 105.292,67.301 105.290 C 73.585 105.289,73.730 105.311,74.062 106.319 C 75.386 110.329,77.753 111.781,80.981 110.561 C 82.307 110.061,83.044 107.689,82.362 106.118 C 82.212 105.772,81.846 104.860,81.549 104.092 C 81.252 103.323,80.800 102.246,80.545 101.697 C 80.289 101.148,80.016 100.474,79.937 100.200 C 79.858 99.925,79.680 99.566,79.543 99.401 C 79.405 99.237,79.186 98.772,79.057 98.369 C 78.928 97.966,78.692 97.529,78.533 97.397 C 78.374 97.265,78.244 97.001,78.244 96.812 C 78.244 96.622,78.019 96.044,77.745 95.528 C 77.470 95.012,77.246 94.449,77.246 94.278 C 77.246 94.107,77.076 93.640,76.868 93.241 C 76.660 92.842,76.204 91.751,75.854 90.818 C 75.505 89.885,75.053 88.762,74.850 88.323 C 72.062 82.281,71.681 81.765,69.752 81.435 C 67.772 81.095,67.416 81.087,66.068 81.345 M70.944 82.712 C 71.464 83.138,71.939 83.632,72.001 83.809 C 72.341 84.798,73.940 88.459,74.579 89.712 C 74.744 90.037,75.181 91.074,75.549 92.016 C 75.917 92.958,76.347 93.995,76.505 94.320 C 76.662 94.644,77.014 95.404,77.287 96.008 C 77.560 96.612,77.977 97.510,78.214 98.004 C 78.450 98.498,78.644 98.986,78.643 99.089 C 78.643 99.191,78.814 99.640,79.024 100.087 C 79.491 101.079,80.973 104.725,81.464 106.088 C 82.126 107.926,81.762 109.192,80.383 109.846 C 78.403 110.786,76.051 109.635,75.353 107.385 C 74.520 104.700,74.792 104.790,67.539 104.790 L 61.459 104.790 60.977 105.272 C 60.712 105.537,60.438 106.009,60.369 106.320 C 59.827 108.748,58.453 110.080,56.509 110.063 C 53.541 110.037,52.814 108.045,54.476 104.491 C 54.682 104.052,55.076 103.199,55.352 102.595 C 55.629 101.991,56.267 100.614,56.770 99.535 C 57.273 98.455,57.685 97.465,57.685 97.334 C 57.685 97.202,57.806 96.918,57.954 96.701 C 58.102 96.485,58.387 95.858,58.587 95.309 C 58.787 94.760,59.012 94.222,59.086 94.112 C 59.160 94.002,59.557 93.059,59.968 92.016 C 60.379 90.973,60.886 89.755,61.096 89.308 C 61.306 88.862,61.477 88.393,61.477 88.266 C 61.477 88.028,61.943 87.009,62.787 85.400 C 63.055 84.890,63.273 84.369,63.273 84.244 C 63.273 83.847,64.148 82.808,64.770 82.466 C 66.553 81.487,69.597 81.608,70.944 82.712 M92.977 88.432 C 92.792 88.540,92.196 88.713,91.652 88.816 C 89.589 89.207,86.757 91.597,85.640 93.888 C 85.305 94.578,85.030 95.381,85.030 95.674 C 85.030 95.968,84.951 96.208,84.855 96.208 C 84.133 96.208,83.991 101.284,84.679 102.495 C 84.866 102.824,85.111 103.465,85.225 103.919 C 85.339 104.373,85.566 104.855,85.730 104.991 C 85.894 105.127,86.028 105.361,86.028 105.512 C 86.028 105.814,87.043 107.198,87.854 108.001 C 89.992 110.118,95.199 111.294,97.505 110.180 C 97.944 109.968,98.438 109.790,98.603 109.785 C 98.767 109.780,99.321 109.390,99.833 108.917 L 100.764 108.059 100.888 108.884 C 100.956 109.337,100.939 109.882,100.850 110.094 C 100.573 110.756,99.768 111.976,99.609 111.976 C 99.525 111.976,99.108 112.223,98.681 112.524 C 97.597 113.288,92.987 113.367,91.816 112.641 C 88.781 110.759,86.028 111.591,86.028 114.391 C 86.028 120.060,99.321 121.458,104.857 116.372 C 105.661 115.634,106.986 113.789,106.986 113.409 C 106.986 113.286,107.188 112.801,107.435 112.331 L 107.884 111.477 107.884 100.949 L 107.884 90.422 107.036 89.622 C 105.613 88.282,102.475 88.514,101.698 90.017 C 101.210 90.960,100.757 91.090,100.164 90.458 C 99.472 89.720,97.953 88.824,97.379 88.815 C 97.119 88.811,96.682 88.680,96.407 88.523 C 95.834 88.195,93.489 88.133,92.977 88.432 M139.939 88.441 C 139.674 88.547,138.826 88.723,138.053 88.832 C 137.280 88.942,136.508 89.155,136.338 89.306 C 136.167 89.457,135.691 89.720,135.279 89.890 C 134.868 90.060,134.531 90.288,134.531 90.396 C 134.531 90.504,134.357 90.647,134.144 90.715 C 133.666 90.866,131.790 92.609,131.420 93.244 C 131.271 93.502,131.008 94.027,130.837 94.411 C 130.665 94.795,130.335 95.507,130.102 95.992 C 129.499 97.249,129.493 102.361,130.093 103.535 C 130.305 103.951,130.779 104.907,131.144 105.659 C 131.510 106.411,131.924 107.070,132.064 107.124 C 132.205 107.178,132.368 107.372,132.425 107.554 C 132.570 108.010,134.578 109.550,135.376 109.818 C 135.735 109.938,136.163 110.149,136.327 110.287 C 136.492 110.424,137.345 110.685,138.224 110.867 C 145.481 112.367,152.235 109.539,150.919 105.551 C 150.347 103.820,147.709 103.051,146.173 104.168 C 144.797 105.169,139.232 105.186,138.549 104.191 C 138.398 103.972,138.160 103.792,138.021 103.792 C 137.738 103.792,137.525 103.358,137.525 102.778 C 137.525 102.409,137.746 102.395,143.683 102.395 C 150.816 102.395,150.732 102.416,151.747 100.413 C 152.369 99.185,152.449 98.078,152.010 96.763 C 151.853 96.293,151.663 95.571,151.588 95.158 C 151.513 94.745,151.295 94.206,151.103 93.960 C 150.911 93.714,150.693 93.318,150.618 93.081 C 150.459 92.573,148.679 90.901,148.103 90.718 C 147.884 90.649,147.705 90.507,147.705 90.402 C 147.705 90.298,147.368 90.057,146.956 89.867 C 146.544 89.677,146.094 89.414,145.956 89.283 C 145.817 89.153,145.278 88.985,144.758 88.912 C 144.238 88.838,143.273 88.655,142.615 88.504 C 141.231 88.187,140.611 88.172,139.939 88.441 M164.072 88.533 C 163.578 88.689,162.959 88.818,162.696 88.819 C 162.115 88.823,159.281 90.157,159.281 90.427 C 159.281 90.532,159.160 90.619,159.011 90.619 C 158.432 90.619,156.117 93.017,155.490 94.268 C 154.131 96.975,153.984 102.283,155.204 104.576 C 155.471 105.076,155.690 105.576,155.692 105.687 C 155.698 105.988,156.649 107.152,157.861 108.342 C 162.651 113.044,175.246 111.813,175.605 106.608 C 175.778 104.091,172.669 102.584,170.606 104.185 C 169.392 105.128,164.303 105.119,163.415 104.173 C 163.219 103.964,162.986 103.792,162.899 103.792 C 162.811 103.792,162.615 103.545,162.464 103.244 C 162.312 102.942,162.157 102.632,162.119 102.555 C 162.081 102.479,164.914 102.389,168.416 102.356 L 174.782 102.295 175.496 101.697 C 175.889 101.367,176.298 100.873,176.406 100.599 C 176.892 99.352,177.088 98.392,176.961 97.871 C 176.886 97.560,176.738 96.772,176.633 96.121 C 176.528 95.470,176.318 94.796,176.165 94.624 C 176.013 94.452,175.758 93.997,175.598 93.613 C 174.860 91.835,170.863 88.825,169.237 88.823 C 168.949 88.823,168.331 88.688,167.864 88.523 C 166.818 88.154,165.262 88.158,164.072 88.533 M123.940 88.722 C 122.426 89.024,120.857 89.925,120.383 90.766 C 120.209 91.075,120.066 90.986,119.205 90.025 L 118.224 88.933 116.697 88.856 C 114.416 88.741,113.161 89.371,112.860 90.784 C 112.798 91.077,112.660 91.531,112.554 91.792 C 112.208 92.641,112.342 107.084,112.707 108.417 C 113.281 110.508,115.172 111.484,117.483 110.882 C 119.963 110.236,120.160 109.703,120.160 103.637 C 120.160 96.570,120.963 95.314,125.252 95.677 C 129.585 96.043,130.790 90.027,126.632 88.783 C 125.982 88.588,125.404 88.436,125.349 88.445 C 125.294 88.453,124.660 88.578,123.940 88.722 M67.075 89.404 C 66.967 89.607,66.520 90.793,66.083 92.042 C 64.914 95.381,64.368 96.857,64.135 97.305 C 63.141 99.225,63.513 99.440,67.783 99.410 C 72.401 99.378,72.543 99.241,70.980 96.307 C 70.805 95.978,70.661 95.573,70.660 95.406 C 70.659 95.240,70.492 94.791,70.289 94.408 C 70.085 94.026,69.804 93.353,69.664 92.914 C 69.524 92.475,69.343 92.026,69.262 91.916 C 69.181 91.806,68.963 91.252,68.778 90.684 C 68.437 89.638,68.242 89.383,67.618 89.160 C 67.395 89.081,67.201 89.168,67.075 89.404 M96.310 89.298 C 97.535 89.412,99.216 90.255,100.002 91.150 C 100.838 92.103,101.507 92.060,101.971 91.024 C 102.798 89.176,105.156 88.742,106.587 90.173 L 107.339 90.925 107.490 93.916 C 107.766 99.364,107.468 109.668,106.993 111.157 C 106.769 111.856,106.587 112.520,106.587 112.633 C 106.587 113.488,104.164 116.214,102.653 117.058 C 97.744 119.802,88.607 118.944,87.036 115.591 L 86.578 114.613 87.090 113.494 L 87.603 112.375 88.662 112.381 C 89.373 112.386,90.048 112.549,90.719 112.879 C 91.267 113.149,91.862 113.370,92.040 113.371 C 92.218 113.372,92.936 113.559,93.637 113.787 C 96.974 114.870,100.882 112.838,101.403 109.747 C 101.788 107.463,101.215 106.803,99.871 107.983 C 98.030 109.599,95.044 110.082,91.916 109.270 C 88.098 108.278,85.301 104.578,84.879 99.960 C 84.785 98.931,85.517 95.303,85.918 94.810 C 86.052 94.646,86.277 94.219,86.418 93.863 C 87.418 91.337,91.752 88.873,94.711 89.150 C 95.040 89.180,95.760 89.247,96.310 89.298 M127.239 89.763 C 127.903 90.250,128.232 91.113,128.215 92.321 C 128.186 94.326,127.517 94.794,124.740 94.751 C 120.394 94.685,119.364 96.386,119.362 103.631 C 119.361 108.741,119.256 109.176,117.860 109.842 C 116.197 110.635,113.716 109.871,113.464 108.489 C 113.404 108.156,113.381 104.037,113.414 99.336 L 113.473 90.787 114.219 90.104 C 115.735 88.715,118.375 89.338,118.938 91.217 C 119.272 92.332,120.036 92.344,120.861 91.247 C 122.202 89.465,125.715 88.647,127.239 89.763 M145.509 89.914 C 148.924 91.351,151.311 94.668,151.357 98.040 C 151.405 101.458,151.098 101.597,143.534 101.597 C 136.229 101.597,135.927 101.677,136.959 103.346 C 138.626 106.045,142.858 106.596,146.872 104.636 C 149.580 103.314,151.503 106.634,149.152 108.572 C 146.985 110.358,140.173 110.995,137.026 109.706 C 127.872 105.958,127.810 93.470,136.926 89.875 C 139.115 89.012,143.413 89.032,145.509 89.914 M170.060 89.789 C 170.444 90.025,170.870 90.218,171.006 90.219 C 172.919 90.225,176.246 95.195,176.247 98.047 C 176.248 101.375,175.707 101.597,167.581 101.597 L 161.885 101.597 161.568 102.081 C 160.974 102.987,162.209 104.499,164.209 105.314 C 166.203 106.126,167.635 105.980,171.692 104.552 C 174.787 103.463,176.262 106.687,173.620 108.765 C 173.174 109.116,171.701 109.621,169.461 110.192 C 164.536 111.446,158.205 109.019,156.346 105.162 C 154.994 102.357,155.046 102.600,155.135 99.542 C 155.251 95.502,156.208 93.650,159.658 90.785 C 159.988 90.510,161.827 89.749,162.974 89.412 C 164.222 89.046,169.287 89.315,170.060 89.789 M68.376 91.367 C 68.563 92.224,68.895 93.014,69.069 93.014 C 69.155 93.014,69.289 93.396,69.365 93.862 C 69.442 94.329,69.619 94.845,69.759 95.010 C 69.899 95.175,70.161 95.826,70.342 96.457 C 70.522 97.088,70.757 97.605,70.864 97.605 C 70.971 97.605,71.058 97.919,71.058 98.303 L 71.058 99.002 67.764 99.002 L 64.471 99.002 64.471 98.403 C 64.471 98.074,64.554 97.804,64.655 97.804 C 64.756 97.804,64.944 97.468,65.071 97.056 C 65.198 96.644,65.467 95.948,65.669 95.509 C 66.146 94.469,67.010 92.067,67.157 91.367 C 67.246 90.948,67.390 90.818,67.764 90.818 C 68.138 90.818,68.285 90.950,68.376 91.367 M164.788 93.636 C 163.196 94.010,161.597 95.467,161.353 96.767 C 161.108 98.074,161.177 98.098,165.488 98.158 C 170.680 98.231,171.150 98.016,170.149 96.024 C 169.162 94.059,167.032 93.110,164.788 93.636 M138.922 94.169 C 137.154 95.122,136.019 97.052,136.726 97.904 C 137.156 98.421,145.221 98.342,145.502 97.818 C 145.783 97.292,145.762 96.690,145.451 96.372 C 145.309 96.226,145.076 95.822,144.933 95.474 C 144.211 93.706,141.052 93.020,138.922 94.169 M94.548 94.501 C 91.023 95.758,90.031 101.261,92.931 103.475 C 97.238 106.764,102.474 103.174,101.222 97.791 C 100.621 95.208,97.240 93.541,94.548 94.501 M167.445 94.652 C 169.517 95.464,170.296 97.076,168.710 97.271 C 166.344 97.563,161.876 97.421,161.882 97.055 C 161.894 96.367,163.316 95.043,164.471 94.644 C 165.935 94.138,166.136 94.139,167.445 94.652 M189.133 94.498 C 184.282 96.298,184.784 104.271,189.804 105.155 C 193.521 105.810,195.883 103.771,195.890 99.900 C 195.898 95.846,192.602 93.210,189.133 94.498 M142.476 94.639 C 143.703 94.937,145.473 96.709,145.008 97.175 C 144.814 97.369,137.857 97.411,137.548 97.220 C 136.844 96.785,138.203 95.181,139.653 94.736 C 140.854 94.367,141.295 94.352,142.476 94.639 M98.503 95.596 C 100.585 96.783,101.717 100.305,100.399 101.497 C 100.180 101.696,100.000 101.964,100.000 102.093 C 100.000 103.436,95.108 104.392,93.857 103.293 C 92.105 101.756,91.869 101.150,92.067 98.687 C 92.307 95.694,95.764 94.034,98.503 95.596 M192.742 95.550 C 195.089 96.612,195.896 101.520,194.014 103.292 C 192.576 104.645,192.698 104.591,191.103 104.591 C 188.082 104.591,186.727 103.144,186.727 99.918 C 186.727 95.988,189.407 94.042,192.742 95.550 " stroke="none" fill="#70623d" fill-rule="evenodd"></path><path id="path4" d="M89.405 28.226 C 89.357 28.275,87.707 28.414,85.739 28.537 C 83.559 28.672,81.922 28.868,81.549 29.038 C 81.213 29.192,80.309 29.378,79.541 29.452 C 78.772 29.527,77.650 29.752,77.046 29.952 C 76.442 30.153,75.499 30.379,74.950 30.456 C 74.028 30.584,70.886 31.512,69.960 31.930 C 69.741 32.029,69.112 32.245,68.563 32.409 C 66.952 32.892,65.230 33.518,64.992 33.707 C 64.870 33.804,64.546 33.949,64.271 34.029 C 63.480 34.261,59.281 36.360,59.281 36.524 C 59.281 36.606,58.877 36.827,58.383 37.015 C 57.889 37.204,57.485 37.435,57.485 37.528 C 57.485 37.621,57.305 37.755,57.085 37.825 C 55.707 38.262,48.506 43.200,48.046 44.023 C 47.957 44.182,47.777 44.313,47.645 44.314 C 47.294 44.318,42.029 49.342,40.540 51.093 C 39.839 51.919,39.200 52.640,39.122 52.695 C 38.385 53.211,34.132 58.988,34.132 59.474 C 34.132 59.572,34.018 59.771,33.878 59.916 C 33.739 60.061,33.222 60.835,32.731 61.636 C 32.239 62.437,31.593 63.470,31.296 63.932 C 30.999 64.393,30.433 65.444,30.037 66.267 C 29.641 67.091,29.232 67.899,29.128 68.064 C 29.025 68.229,28.883 68.498,28.813 68.663 C 28.744 68.827,28.422 69.591,28.098 70.359 C 27.774 71.128,27.345 72.116,27.145 72.555 C 26.945 72.994,26.718 73.750,26.641 74.235 C 26.564 74.720,26.332 75.393,26.125 75.732 C 25.919 76.070,25.748 76.572,25.745 76.846 C 25.742 77.121,25.562 77.738,25.344 78.218 C 25.126 78.698,24.889 79.596,24.818 80.214 C 24.747 80.832,24.574 81.517,24.434 81.737 C 24.293 81.956,24.079 82.876,23.957 83.780 C 23.834 84.684,23.613 85.717,23.466 86.075 C 23.318 86.434,23.137 87.490,23.063 88.423 C 22.990 89.356,22.800 91.149,22.642 92.407 C 22.273 95.348,22.272 101.081,22.640 103.892 C 22.798 105.100,23.020 107.098,23.133 108.333 C 23.246 109.568,23.425 110.738,23.529 110.933 C 23.633 111.129,23.816 111.984,23.934 112.835 C 24.052 113.685,24.275 114.581,24.428 114.825 C 24.582 115.070,24.766 115.690,24.839 116.203 C 24.911 116.717,25.145 117.635,25.359 118.244 C 25.573 118.853,25.749 119.559,25.749 119.813 C 25.749 120.067,25.923 120.617,26.136 121.035 C 26.349 121.453,26.586 122.078,26.661 122.422 C 26.866 123.353,28.745 127.995,29.065 128.359 C 29.217 128.532,29.341 128.747,29.341 128.835 C 29.341 129.089,30.900 132.139,31.538 133.134 C 32.363 134.420,32.581 134.780,33.069 135.666 C 33.308 136.099,33.645 136.571,33.818 136.714 C 33.990 136.858,34.132 137.066,34.132 137.178 C 34.132 137.355,35.287 139.119,36.843 141.317 C 37.115 141.702,37.649 142.352,38.030 142.762 C 38.411 143.172,38.723 143.566,38.723 143.637 C 38.723 143.708,38.925 143.962,39.172 144.201 C 39.767 144.776,42.180 147.496,42.347 147.780 C 42.420 147.903,43.400 148.812,44.525 149.800 C 45.650 150.788,46.812 151.821,47.106 152.096 C 47.621 152.575,48.859 153.624,50.177 154.698 C 50.519 154.977,51.427 155.614,52.196 156.113 C 54.774 157.787,55.620 158.300,56.680 158.833 C 57.061 159.025,57.533 159.339,57.728 159.531 C 57.924 159.723,58.206 159.880,58.356 159.880 C 58.506 159.880,58.843 160.049,59.105 160.255 C 59.630 160.668,61.320 161.549,63.174 162.375 C 63.832 162.669,64.541 163.000,64.750 163.111 C 65.284 163.396,67.152 164.052,68.563 164.448 C 69.222 164.634,70.165 164.928,70.659 165.103 C 72.315 165.689,74.344 166.251,75.250 166.376 C 75.744 166.444,76.552 166.662,77.046 166.860 C 77.540 167.058,78.559 167.283,79.310 167.360 C 80.061 167.438,80.972 167.625,81.334 167.776 C 83.184 168.549,85.292 168.563,198.603 168.563 C 311.787 168.563,313.724 168.550,316.009 167.774 C 316.487 167.612,317.415 167.418,318.070 167.344 C 318.725 167.270,319.711 167.050,320.259 166.854 C 320.808 166.658,321.751 166.438,322.355 166.364 C 322.959 166.290,323.699 166.111,324.000 165.966 C 324.301 165.820,324.840 165.641,325.198 165.567 C 326.072 165.386,329.286 164.329,330.070 163.965 C 330.416 163.804,330.819 163.673,330.965 163.673 C 331.412 163.673,337.209 160.827,338.723 159.865 C 339.848 159.149,340.835 158.587,341.651 158.195 C 342.218 157.924,342.949 157.445,344.713 156.188 C 345.021 155.968,345.843 155.392,346.539 154.908 C 347.235 154.424,347.984 153.866,348.204 153.669 C 349.117 152.846,350.661 151.465,351.568 150.661 C 353.142 149.263,355.931 146.480,356.788 145.450 C 357.226 144.924,357.727 144.340,357.901 144.153 C 358.074 143.966,358.743 143.184,359.387 142.415 C 360.031 141.647,360.635 140.928,360.730 140.818 C 360.825 140.709,361.054 140.381,361.240 140.090 C 361.425 139.799,361.899 139.081,362.293 138.493 C 363.706 136.385,364.885 134.518,365.579 133.288 C 365.967 132.599,366.367 131.901,366.467 131.737 C 366.566 131.572,366.962 130.778,367.346 129.973 C 367.729 129.168,368.121 128.404,368.216 128.276 C 368.311 128.149,368.617 127.460,368.895 126.747 C 369.174 126.033,369.603 124.955,369.849 124.351 C 370.095 123.748,370.413 122.849,370.556 122.355 C 370.699 121.861,370.960 121.123,371.136 120.715 C 371.313 120.307,371.457 119.785,371.457 119.556 C 371.457 119.327,371.631 118.757,371.845 118.289 C 372.058 117.821,372.297 116.951,372.376 116.354 C 372.455 115.758,372.683 114.910,372.882 114.471 C 373.082 114.032,373.247 113.303,373.249 112.850 C 373.252 112.398,373.431 111.472,373.648 110.792 C 373.866 110.112,374.134 108.461,374.245 107.123 C 374.357 105.785,374.538 103.927,374.647 102.994 C 374.936 100.547,374.893 95.266,374.564 92.715 C 374.409 91.507,374.219 89.621,374.142 88.523 C 374.065 87.425,373.884 86.213,373.739 85.828 C 373.594 85.444,373.379 84.468,373.259 83.659 C 373.140 82.849,372.911 81.999,372.749 81.768 C 372.587 81.537,372.455 81.118,372.455 80.837 C 372.455 80.556,372.327 79.880,372.171 79.335 C 372.014 78.790,371.694 77.672,371.459 76.851 C 371.224 76.030,370.960 75.266,370.873 75.154 C 370.786 75.042,370.655 74.638,370.583 74.256 C 370.510 73.875,370.282 73.201,370.076 72.759 C 369.451 71.420,368.697 69.590,368.552 69.062 C 368.477 68.787,368.302 68.428,368.164 68.263 C 368.025 68.099,367.845 67.740,367.764 67.465 C 367.684 67.191,367.504 66.831,367.365 66.667 C 367.227 66.502,367.047 66.143,366.965 65.868 C 366.884 65.594,366.439 64.785,365.977 64.072 C 365.154 62.802,364.718 62.101,363.373 59.880 C 362.140 57.845,359.598 54.495,357.086 51.597 C 354.927 49.105,348.186 42.972,346.021 41.528 C 345.765 41.357,344.903 40.768,344.105 40.220 C 343.308 39.671,342.332 39.032,341.936 38.800 C 341.541 38.568,340.454 37.921,339.521 37.361 C 338.588 36.802,337.196 36.035,336.427 35.659 C 333.552 34.249,331.537 33.341,330.997 33.212 C 330.690 33.139,330.215 32.958,329.940 32.810 C 329.028 32.318,326.761 31.557,325.557 31.339 C 324.904 31.220,324.131 31.000,323.839 30.848 C 323.547 30.697,322.757 30.510,322.083 30.433 C 321.410 30.356,320.609 30.165,320.304 30.009 C 319.999 29.853,318.966 29.633,318.009 29.521 C 317.051 29.408,315.908 29.185,315.469 29.024 C 313.478 28.296,310.915 28.278,198.988 28.208 C 138.765 28.170,89.453 28.178,89.405 28.226 M313.487 29.370 C 313.934 29.550,315.279 29.803,316.477 29.932 C 317.674 30.061,318.763 30.257,318.896 30.367 C 319.029 30.478,319.792 30.659,320.591 30.770 C 321.390 30.880,322.226 31.071,322.449 31.192 C 322.672 31.314,323.528 31.567,324.351 31.754 C 325.175 31.941,326.477 32.336,327.246 32.631 C 328.014 32.927,329.127 33.340,329.719 33.549 C 330.311 33.759,330.895 34.010,331.016 34.107 C 331.138 34.204,331.911 34.566,332.735 34.912 C 335.572 36.105,338.016 37.316,339.500 38.266 C 340.097 38.647,340.727 39.018,340.901 39.091 C 341.169 39.201,342.274 39.928,345.110 41.856 C 345.384 42.043,346.058 42.561,346.607 43.008 C 347.156 43.455,348.002 44.088,348.488 44.415 C 349.853 45.335,356.326 51.583,357.532 53.144 C 357.722 53.391,358.153 53.952,358.488 54.391 C 358.824 54.830,359.251 55.369,359.437 55.589 C 360.099 56.372,363.069 60.771,363.750 61.979 C 363.935 62.307,364.347 62.979,364.665 63.473 C 366.266 65.955,367.770 69.099,369.189 72.928 C 369.347 73.353,369.607 73.955,369.768 74.266 C 369.928 74.576,370.060 74.996,370.060 75.197 C 370.060 75.399,370.243 75.920,370.468 76.355 C 370.692 76.790,370.973 77.595,371.091 78.144 C 371.209 78.693,371.426 79.377,371.573 79.666 C 371.720 79.954,371.937 80.796,372.056 81.537 C 372.174 82.278,372.391 83.120,372.538 83.408 C 372.684 83.696,372.865 84.561,372.939 85.329 C 373.013 86.098,373.226 87.400,373.413 88.224 C 373.916 90.442,373.920 106.434,373.417 108.383 C 373.233 109.097,373.021 110.344,372.946 111.154 C 372.870 111.965,372.648 112.998,372.452 113.450 C 372.256 113.902,372.030 114.763,371.951 115.364 C 371.871 115.966,371.692 116.639,371.552 116.861 C 371.412 117.084,371.197 117.759,371.075 118.363 C 370.953 118.967,370.725 119.731,370.569 120.060 C 370.413 120.389,370.153 121.063,369.992 121.557 C 369.475 123.140,369.064 124.242,368.858 124.603 C 368.747 124.797,368.513 125.378,368.337 125.895 C 367.755 127.609,365.498 132.083,364.181 134.132 C 362.264 137.116,360.350 139.865,358.487 142.315 C 356.986 144.289,349.841 151.480,348.393 152.475 C 347.850 152.849,347.315 153.260,347.206 153.390 C 347.037 153.588,345.326 154.828,344.144 155.608 C 343.962 155.728,343.287 156.178,342.645 156.606 C 342.003 157.035,341.194 157.545,340.849 157.741 C 340.503 157.936,339.815 158.356,339.321 158.673 C 338.110 159.451,332.795 162.076,332.431 162.076 C 332.379 162.076,331.766 162.345,331.069 162.675 C 330.372 163.004,329.676 163.276,329.522 163.280 C 329.368 163.283,328.792 163.507,328.244 163.777 C 327.695 164.047,327.111 164.269,326.946 164.271 C 326.781 164.273,326.403 164.401,326.105 164.556 C 325.807 164.712,325.044 164.944,324.409 165.072 C 323.773 165.201,323.063 165.427,322.831 165.574 C 322.599 165.722,321.835 165.905,321.135 165.982 C 320.434 166.058,319.608 166.249,319.299 166.405 C 318.991 166.562,317.913 166.778,316.904 166.886 C 315.895 166.995,314.576 167.237,313.972 167.424 C 312.287 167.947,85.658 167.952,83.633 167.430 C 82.919 167.246,81.662 167.033,80.838 166.957 C 80.015 166.880,78.937 166.660,78.443 166.467 C 77.949 166.274,76.961 166.052,76.248 165.973 C 75.534 165.895,74.769 165.716,74.548 165.576 C 74.327 165.436,73.833 165.259,73.450 165.182 C 72.282 164.947,68.429 163.667,66.467 162.862 C 63.442 161.621,62.397 161.164,60.884 160.416 C 59.954 159.957,58.921 159.400,58.589 159.180 C 58.256 158.959,57.759 158.666,57.485 158.528 C 57.211 158.390,56.582 158.009,56.088 157.682 C 55.594 157.355,54.920 156.948,54.591 156.778 C 54.022 156.485,53.069 155.849,52.196 155.180 C 51.976 155.011,51.149 154.402,50.357 153.826 C 49.565 153.250,48.497 152.423,47.983 151.988 C 46.886 151.059,40.179 144.354,39.671 143.678 C 39.479 143.422,38.887 142.674,38.356 142.014 C 37.825 141.355,37.277 140.602,37.138 140.342 C 36.999 140.082,36.378 139.165,35.758 138.303 C 32.995 134.461,28.743 126.733,28.743 125.552 C 28.743 125.429,28.593 125.042,28.411 124.691 C 27.992 123.884,26.625 120.072,26.142 118.363 C 25.940 117.650,25.638 116.707,25.471 116.267 C 25.304 115.828,25.163 115.270,25.158 115.027 C 25.154 114.784,24.980 114.154,24.772 113.627 C 24.564 113.100,24.331 111.952,24.255 111.075 C 24.178 110.198,23.966 108.942,23.784 108.283 C 23.283 106.470,23.297 89.663,23.802 88.012 C 23.988 87.402,24.221 86.183,24.320 85.303 C 24.418 84.424,24.589 83.531,24.701 83.319 C 24.812 83.107,25.019 82.260,25.161 81.437 C 25.304 80.614,25.530 79.760,25.664 79.541 C 25.799 79.321,26.007 78.668,26.127 78.088 C 26.247 77.509,26.474 76.835,26.631 76.591 C 26.788 76.347,26.981 75.788,27.060 75.349 C 27.139 74.910,27.371 74.238,27.574 73.855 C 27.778 73.473,27.944 73.040,27.944 72.895 C 27.944 72.629,28.541 71.218,29.440 69.361 C 29.706 68.812,29.983 68.139,30.056 67.864 C 30.129 67.590,30.266 67.268,30.361 67.148 C 30.456 67.029,30.895 66.228,31.337 65.369 C 31.779 64.510,32.248 63.678,32.380 63.519 C 32.647 63.197,32.836 62.888,33.468 61.740 C 33.707 61.306,34.044 60.834,34.217 60.691 C 34.390 60.547,34.531 60.313,34.531 60.169 C 34.531 60.026,34.688 59.753,34.880 59.562 C 35.072 59.371,35.364 59.015,35.529 58.769 C 38.854 53.818,38.754 53.939,43.040 49.701 C 47.458 45.331,47.754 45.046,48.227 44.711 C 48.459 44.546,49.357 43.873,50.223 43.215 C 53.835 40.468,57.301 38.299,60.878 36.543 C 63.940 35.041,64.516 34.776,65.070 34.620 C 65.344 34.543,65.972 34.266,66.465 34.006 C 66.959 33.746,67.545 33.533,67.768 33.533 C 67.992 33.533,68.389 33.383,68.650 33.200 C 68.912 33.017,69.583 32.752,70.142 32.611 C 71.331 32.311,72.754 31.860,74.152 31.339 C 74.701 31.134,75.734 30.905,76.447 30.829 C 77.161 30.753,78.149 30.534,78.643 30.343 C 79.137 30.152,80.261 29.938,81.142 29.868 C 82.023 29.797,83.056 29.639,83.437 29.517 C 84.946 29.035,92.267 29.004,200.599 29.023 C 304.049 29.040,312.737 29.067,313.487 29.370 M210.825 81.616 C 208.249 82.064,208.160 82.538,208.200 95.481 C 208.218 101.315,208.219 106.537,208.202 107.086 C 208.162 108.363,208.828 109.718,209.724 110.186 C 210.536 110.610,220.137 110.917,222.570 110.597 C 226.875 110.030,231.745 107.291,233.233 104.598 C 234.186 102.873,234.881 101.229,235.048 100.299 C 235.128 99.860,235.313 99.212,235.460 98.859 C 236.305 96.835,235.214 90.898,233.472 88.035 C 232.023 85.655,228.173 82.885,225.549 82.334 C 225.165 82.253,224.581 82.043,224.251 81.867 C 223.595 81.516,212.585 81.310,210.825 81.616 M222.796 82.324 C 223.176 82.482,223.973 82.673,224.567 82.748 C 225.162 82.823,225.918 83.042,226.248 83.236 C 226.577 83.429,227.071 83.655,227.345 83.737 C 227.620 83.820,228.098 84.099,228.409 84.359 C 228.719 84.618,229.104 84.830,229.264 84.830 C 230.058 84.830,233.348 88.911,233.638 90.255 C 233.717 90.620,233.950 91.251,234.156 91.658 C 236.692 96.669,233.299 105.649,227.944 108.101 C 224.841 109.521,223.062 109.793,217.002 109.771 C 211.167 109.750,210.217 109.621,209.486 108.752 L 208.982 108.153 208.985 96.043 C 208.987 89.382,209.054 83.834,209.135 83.714 C 209.215 83.594,209.715 83.167,210.245 82.766 L 211.208 82.036 216.658 82.036 C 220.955 82.036,222.253 82.097,222.796 82.324 M270.523 83.255 C 268.767 83.801,268.172 84.938,268.255 87.590 C 268.292 88.791,268.043 89.222,267.310 89.222 C 266.488 89.222,264.772 90.137,264.509 90.716 C 263.544 92.833,265.078 95.609,267.212 95.609 C 268.283 95.609,268.263 95.523,268.263 100.158 C 268.263 105.043,268.550 106.665,269.726 108.443 C 271.747 111.498,278.973 111.916,280.586 109.070 C 281.794 106.937,280.593 104.794,278.184 104.788 C 275.773 104.781,275.693 104.624,275.631 99.748 C 275.576 95.370,275.561 95.409,277.266 95.409 C 280.064 95.409,281.523 93.724,280.720 91.419 C 280.193 89.905,279.088 89.222,277.169 89.222 C 275.833 89.222,275.649 89.014,275.649 87.508 C 275.649 84.979,274.925 83.737,273.116 83.163 C 271.901 82.777,272.080 82.771,270.523 83.255 M274.100 84.420 C 274.613 84.994,274.651 85.156,274.651 86.800 C 274.651 89.794,274.817 90.000,277.295 90.084 C 279.123 90.146,279.737 90.491,280.044 91.633 C 280.552 93.520,279.783 94.297,277.192 94.513 C 274.661 94.724,274.750 94.539,274.750 99.572 C 274.750 104.887,274.846 105.080,277.568 105.263 C 280.707 105.473,281.393 108.430,278.593 109.687 C 275.465 111.091,271.582 109.923,269.947 107.086 L 269.371 106.088 269.266 100.898 C 269.138 94.544,269.232 94.797,266.914 94.542 C 263.904 94.211,264.447 89.785,267.465 90.056 C 268.864 90.182,269.090 89.793,269.256 86.981 C 269.431 84.009,269.833 83.587,272.353 83.734 C 273.394 83.794,273.620 83.883,274.100 84.420 M215.344 87.556 C 214.870 88.127,214.947 104.055,215.426 104.534 C 216.421 105.528,222.931 104.857,225.008 103.546 C 230.206 100.264,229.453 89.596,223.912 87.998 C 223.440 87.862,222.877 87.632,222.660 87.488 C 222.018 87.060,215.707 87.118,215.344 87.556 M221.501 88.224 C 228.793 89.171,230.542 99.304,224.077 103.147 C 222.730 103.947,217.576 104.366,216.078 103.796 L 215.564 103.601 215.616 95.971 L 215.669 88.341 216.168 88.203 C 216.905 87.998,219.851 88.009,221.501 88.224 M329.940 88.751 C 328.935 88.915,328.023 89.189,327.703 89.424 C 327.405 89.642,327.054 89.820,326.922 89.820 C 326.451 89.820,324.543 91.445,323.744 92.526 C 321.142 96.048,320.990 102.212,323.416 105.836 C 326.550 110.519,332.402 111.820,336.972 108.849 C 338.284 107.997,338.148 110.475,336.807 111.855 C 335.204 113.506,330.764 113.938,328.761 112.637 C 326.885 111.419,324.369 111.774,323.554 113.372 C 321.665 117.073,327.314 119.848,335.322 119.153 C 337.239 118.986,337.690 118.851,340.070 117.730 C 341.222 117.186,343.277 115.065,343.642 114.042 C 343.714 113.839,343.879 113.538,344.009 113.373 C 344.139 113.209,344.462 112.490,344.727 111.776 L 345.210 110.479 345.210 100.691 L 345.210 90.902 344.544 90.061 C 343.196 88.360,339.761 88.463,338.753 90.235 C 338.315 91.006,338.085 90.975,336.542 89.933 C 335.497 89.228,334.945 89.002,333.832 88.825 C 333.064 88.702,332.255 88.573,332.036 88.538 C 331.816 88.503,330.873 88.598,329.940 88.751 M246.274 88.898 C 245.432 89.026,244.578 89.275,244.377 89.452 C 244.176 89.629,243.787 89.838,243.513 89.917 C 242.742 90.140,240.375 92.586,239.729 93.828 C 236.753 99.545,238.499 107.194,243.413 109.967 C 245.932 111.388,250.726 111.498,252.537 110.175 C 252.834 109.958,253.132 109.780,253.199 109.780 C 253.266 109.780,253.614 109.556,253.974 109.281 C 254.818 108.638,254.830 108.640,255.629 109.574 C 257.021 111.200,259.658 111.208,261.178 109.592 L 261.776 108.955 261.776 99.896 L 261.776 90.837 260.983 90.025 C 259.438 88.443,256.864 88.406,255.508 89.947 L 254.728 90.832 254.016 90.376 C 253.625 90.125,252.989 89.723,252.603 89.482 C 251.386 88.722,248.925 88.494,246.274 88.898 M307.286 88.846 C 306.628 88.942,305.845 89.200,305.547 89.420 C 305.250 89.640,304.913 89.820,304.799 89.820 C 304.684 89.820,304.426 89.978,304.225 90.170 C 303.273 91.077,303.091 91.068,302.168 90.066 C 300.725 88.501,298.105 88.488,296.768 90.039 L 296.009 90.918 296.009 99.721 L 296.008 108.523 296.619 109.367 C 297.778 110.966,300.401 111.292,301.962 110.031 C 302.889 109.283,302.953 108.854,302.977 103.315 C 303.001 97.425,303.397 96.196,305.563 95.291 C 307.007 94.688,308.515 94.992,309.741 96.134 L 310.675 97.003 310.789 102.643 C 310.912 108.682,310.954 108.927,312.021 109.927 C 313.269 111.096,316.025 111.066,317.221 109.870 C 318.611 108.480,318.462 95.546,317.027 93.047 C 314.929 89.392,312.053 88.152,307.286 88.846 M286.231 89.027 C 283.997 89.552,283.780 90.578,283.864 100.191 L 283.934 108.084 284.431 109.060 C 285.064 110.300,285.429 110.529,287.026 110.685 C 291.202 111.095,291.442 110.070,290.923 94.084 C 290.769 89.344,289.715 88.207,286.231 89.027 M251.833 89.970 C 252.463 90.272,253.228 90.800,253.535 91.144 C 254.352 92.061,254.848 92.122,255.471 91.385 C 256.742 89.883,256.998 89.686,257.863 89.547 C 260.241 89.167,260.896 90.226,261.120 94.810 C 261.241 97.305,260.912 108.347,260.704 108.734 C 259.933 110.176,257.044 110.094,256.044 108.603 C 255.309 107.507,254.870 107.471,253.680 108.412 C 248.226 112.723,240.709 109.641,239.413 102.564 C 239.246 101.648,239.059 100.629,238.999 100.299 C 238.862 99.552,239.631 95.643,239.999 95.222 C 240.148 95.050,240.394 94.558,240.544 94.126 C 240.928 93.028,243.376 90.558,244.411 90.225 C 244.850 90.084,245.299 89.899,245.409 89.816 C 246.239 89.183,250.403 89.283,251.833 89.970 M289.262 90.119 C 289.624 90.421,289.989 90.787,290.074 90.932 C 290.257 91.248,290.290 108.168,290.107 108.643 C 289.555 110.082,285.615 110.142,285.116 108.719 C 284.928 108.181,284.754 92.386,284.926 91.467 C 285.271 89.632,287.754 88.860,289.262 90.119 M300.822 89.837 C 301.143 90.066,301.582 90.598,301.798 91.020 C 302.385 92.172,302.785 92.191,304.090 91.128 C 304.703 90.628,305.314 90.217,305.447 90.213 C 305.580 90.209,306.048 90.032,306.487 89.820 C 307.647 89.260,311.891 89.241,312.598 89.793 C 312.860 89.997,313.273 90.227,313.517 90.304 C 314.302 90.549,315.888 92.557,316.578 94.178 L 317.229 95.709 317.247 101.896 C 317.269 109.185,317.302 108.989,315.945 109.553 C 314.681 110.078,314.250 110.085,313.116 109.599 C 311.890 109.074,311.766 108.621,311.550 103.892 C 311.284 98.057,311.104 96.473,310.637 95.842 C 309.030 93.672,305.427 93.691,303.516 95.879 L 302.495 97.048 302.395 102.795 C 302.283 109.284,302.343 109.042,300.664 109.683 C 298.983 110.325,297.302 109.666,296.838 108.184 C 296.494 107.084,296.411 92.120,296.745 91.475 C 296.889 91.199,297.006 90.850,297.006 90.701 C 297.006 90.437,297.896 89.855,298.703 89.591 C 299.479 89.338,300.245 89.426,300.822 89.837 M335.249 89.920 C 335.653 90.195,336.092 90.419,336.223 90.419 C 336.355 90.419,336.565 90.644,336.691 90.920 C 337.306 92.269,338.715 92.258,339.418 90.898 C 340.192 89.400,341.774 89.077,343.323 90.103 C 344.408 90.820,344.432 91.110,344.311 101.697 L 344.204 111.078 343.659 112.231 C 343.359 112.866,343.114 113.423,343.114 113.469 C 343.114 114.219,340.711 116.522,339.116 117.303 C 336.365 118.648,331.627 119.053,329.042 118.164 C 328.404 117.944,327.724 117.764,327.532 117.764 C 326.993 117.764,325.254 116.797,324.638 116.154 C 322.716 114.148,325.318 111.606,327.905 112.962 C 329.903 114.010,333.847 114.623,334.595 114.001 C 334.726 113.893,335.200 113.678,335.647 113.523 C 336.858 113.106,337.862 112.207,338.329 111.119 C 339.556 108.268,338.568 106.132,336.779 107.766 C 331.556 112.536,322.355 107.334,322.355 99.610 C 322.355 96.205,325.624 90.224,327.488 90.219 C 327.684 90.218,328.114 90.045,328.443 89.834 C 329.462 89.181,334.249 89.242,335.249 89.920 M332.140 94.237 C 327.359 95.451,326.789 102.656,331.337 104.375 C 333.092 105.038,334.121 105.104,335.039 104.612 C 335.470 104.381,335.933 104.192,336.068 104.192 C 336.547 104.192,337.795 102.882,338.253 101.898 C 340.194 97.730,336.519 93.125,332.140 94.237 M248.471 94.489 C 244.926 95.444,243.637 101.392,246.386 104.109 C 248.721 106.416,253.308 105.604,254.730 102.632 C 256.981 97.929,253.331 93.180,248.471 94.489 M335.729 95.514 C 337.125 96.223,337.625 97.319,337.625 99.671 L 337.625 101.522 336.762 102.552 C 333.625 106.299,327.697 102.742,329.308 98.080 C 330.319 95.156,332.951 94.104,335.729 95.514 M252.075 95.524 C 254.722 96.583,255.336 102.236,252.959 103.654 C 252.810 103.743,252.505 104.013,252.281 104.253 C 251.608 104.976,248.697 104.898,247.606 104.128 C 246.154 103.102,245.324 100.473,245.874 98.639 C 246.003 98.209,246.108 97.686,246.108 97.476 C 246.108 97.016,247.078 96.126,248.303 95.463 C 249.312 94.917,250.610 94.938,252.075 95.524 " stroke="none" fill="#d8ccb6" fill-rule="evenodd"></path></g></svg>